<svg height="512pt" viewBox="0 0 512 512" width="512pt" xmlns="http://www.w3.org/2000/svg"><path d="m457 349.128906 29.789062 17.285156v85.5l-73.621093 42.714844-73.617188-42.714844v-85.5l73.617188-42.71875 30.835937 17.894532 7.542969-12.996094-38.378906-22.269531-81.128907 47.078125-73.621093-42.71875v-94.152344l-34.929688-20.269531-7.539062 12.996093 27.445312 15.925782v85.5l-73.621093 42.71875-73.617188-42.71875v-85.5l73.617188-42.71875 33.179687 19.253906 7.539063-12.996094-33.207032-19.269531v-94.148437l-88.640625-51.4375-88.644531 51.4375v43.089843h15.023438v-34.441406l73.621093-42.714844 73.617188 42.714844v85.503906l-73.617188 42.714844-73.621093-42.714844v-36.039062h-15.023438v44.6875l81.132812 47.078125v85.5l-81.132812 47.078125v102.804687l33.808594 19.613282 7.539062-12.992188-26.324218-15.273438v-85.5l73.621093-42.71875 73.617188 42.71875v85.5l-73.617188 42.714844-34.300781-19.902344-7.539062 12.996094 41.839843 24.277344 81.128907-47.078125 32.875 19.078125 7.539062-12.996094-32.902344-19.09375v-85.496094l73.621094-42.71875 73.621094 42.71875v85.496094l-73.621094 42.71875-27.722656-16.085937-7.539063 12.996093 35.261719 20.460938 81.132812-47.078125 81.128907 47.078125 88.644531-51.433594v-102.804687l-37.269531-21.628907zm0 0"/><path d="m244.898438 131.210938c17.1875 0 32.019531-10.246094 38.734374-24.949219l34.714844 8.300781c-.539062 3.304688-.832031 6.6875-.832031 10.140625 0 21.644531 11.042969 40.753906 27.789063 52.003906l-11.929688 16.101563c-4.488281-1.613282-9.320312-2.5-14.359375-2.5-23.472656 0-42.566406 19.097656-42.566406 42.570312s19.09375 42.566406 42.566406 42.566406 42.570313-19.09375 42.570313-42.566406c0-13.019531-5.882813-24.6875-15.117188-32.5l12.429688-16.785156c6.628906 2.398438 13.773437 3.710938 21.21875 3.710938 34.515624 0 62.601562-28.082032 62.601562-62.601563 0-12.15625-3.496094-23.503906-9.515625-33.117187l13.894531-12.6875c6.460938 3.957031 14.050782 6.238281 22.164063 6.238281 23.472656 0 42.566406-19.09375 42.566406-42.566407 0-23.472656-19.09375-42.570312-42.566406-42.570312-23.476563 0-42.570313 19.097656-42.570313 42.570312 0 9.914063 3.417969 19.042969 9.125 26.285157l-12.066406 11.015625c-11.285156-10.984375-26.679688-17.769532-43.632812-17.769532-25.796876 0-47.996094 15.683594-57.566407 38.019532l-35.207031-8.417969c.074219-1.011719.121094-2.03125.121094-3.058594 0-23.472656-19.09375-42.570312-42.566406-42.570312-23.472657 0-42.570313 19.097656-42.570313 42.570312 0 23.472657 19.097656 42.566407 42.570313 42.566407zm224.363281-116.1875c15.1875 0 27.542969 12.359374 27.542969 27.546874s-12.355469 27.542969-27.542969 27.542969c-15.191407 0-27.546875-12.355469-27.546875-27.542969s12.355468-27.546874 27.546875-27.546874zm-122.699219 217.855468c0 15.1875-12.355469 27.542969-27.546875 27.542969-15.1875 0-27.542969-12.355469-27.542969-27.542969s12.355469-27.546875 27.542969-27.546875c15.191406 0 27.546875 12.359375 27.546875 27.546875zm33.554688-155.753906c26.230468 0 47.574218 21.34375 47.574218 47.578125 0 26.230469-21.34375 47.574219-47.574218 47.574219-26.234376 0-47.578126-21.34375-47.578126-47.574219 0-26.234375 21.34375-47.578125 47.578126-47.578125zm-135.21875-16.027344c15.1875 0 27.542968 12.359375 27.542968 27.546875s-12.355468 27.542969-27.542968 27.542969c-15.191407 0-27.546876-12.355469-27.546876-27.542969s12.355469-27.546875 27.546876-27.546875zm0 0"/><path d="m305.761719 445.429688-7.542969-12.996094-47.3125 27.457031-21.320312-12.375-7.542969 12.996094 28.863281 16.746093zm0 0"/><path d="m196.042969 445.445312 7.539062-12.996093 12.996094 7.542969-7.542969 12.992187zm0 0"/><path d="m471.765625 438.933594v-63.867188l-28.835937-16.730468-7.539063 12.996093 21.347656 12.386719v55.214844zm0 0"/><path d="m409.398438 356.277344 7.539062-12.996094 12.996094 7.542969-7.542969 12.992187zm0 0"/><path d="m33.773438 445.441406 7.542968-12.992187 25.089844 14.558593-7.539062 12.996094zm0 0"/><path d="m71.859375 467.546875 7.542969-12.992187 12.996094 7.539062-7.542969 12.996094zm0 0"/><path d="m30.046875 141.453125h15.027344v15.023437h-15.027344zm0 0"/><path d="m30.046875 96.933594h15.027344v29.492187h-15.027344zm0 0"/><path d="m166 215.035156 7.542969-12.996094 12.996093 7.539063-7.542968 12.996094zm0 0"/><path d="m228.371094 297.703125v-63.867187l-28.835938-16.730469-7.539062 12.996093 21.347656 12.386719v55.214844zm0 0"/><path d="m397.644531 124.703125h15.023438c0-17.953125-14.601563-32.554687-32.550781-32.554687v15.023437c9.664062 0 17.527343 7.867187 17.527343 17.53125zm0 0"/></svg>