<svg height="540pt" viewBox="-48 -17 540 540.0031" width="540pt" xmlns="http://www.w3.org/2000/svg"><path d="m339.4375 506.253906h-247.242188c-4.710937 0-8.527343-3.816406-8.527343-8.527344v-42.628906c0-4.710937 3.816406-8.527344 8.527343-8.527344h247.242188c4.714844 0 8.527344 3.816407 8.527344 8.527344v42.628906c0 4.710938-3.8125 8.527344-8.527344 8.527344zm-238.714844-17.054687h230.1875v-25.578125h-230.1875zm0 0"/><path d="m296.808594 237.394531c-4.710938 0-8.527344-3.816406-8.527344-8.527343v-13.195313l-44.980469-58.472656c-7.085937-9.214844-16.226562-14.363281-25.714843-14.496094-9.363282-.101563-18.476563 4.644531-25.648438 13.457031l-48.585938 59.640625v9.28125c0 4.710938-3.816406 8.523438-8.527343 8.523438-4.714844 0-8.527344-3.8125-8.527344-8.523438v-12.304687c0-1.964844.675781-3.863282 1.914063-5.390625l50.503906-62c10.53125-12.925781 24.519531-19.601563 39.097656-19.730469 14.824219.207031 28.667969 7.714844 39.007812 21.15625l46.75 60.769531c1.144532 1.488281 1.765626 3.3125 1.765626 5.195313v16.09375c0 4.707031-3.8125 8.523437-8.527344 8.523437zm0 0"/><path d="m277.925781 277.125h-113.453125c-4.710937 0-8.527344-3.8125-8.527344-8.523438 0-4.710937 3.816407-8.527343 8.527344-8.527343h113.453125c4.710938 0 8.527344 3.816406 8.527344 8.527343 0 4.710938-3.816406 8.523438-8.527344 8.523438zm0 0"/><path d="m305.335938 463.03125c-4.710938 0-8.527344-3.8125-8.527344-8.523438v-155.445312c0-4.710938 3.816406-8.523438 8.527344-8.523438 4.714843 0 8.523437 3.8125 8.523437 8.523438v155.445312c0 4.707032-3.808594 8.523438-8.523437 8.523438zm0 0"/><path d="m126.296875 463.03125c-4.714844 0-8.523437-3.8125-8.523437-8.523438v-148.628906c0-4.714844 3.808593-8.527344 8.523437-8.527344 4.710937 0 8.527344 3.8125 8.527344 8.527344v148.628906c0 4.707032-3.816407 8.523438-8.527344 8.523438zm0 0"/><path d="m245.65625 463.621094c-4.714844 0-8.523438-3.8125-8.523438-8.523438v-63.941406c0-11.757812-9.5625-21.3125-21.3125-21.3125-11.757812 0-21.320312 9.554688-21.320312 21.3125v63.941406c0 4.710938-3.808594 8.523438-8.523438 8.523438-4.710937 0-8.527343-3.8125-8.527343-8.523438v-63.941406c0-21.15625 17.210937-38.367188 38.371093-38.367188 21.152344 0 38.363282 17.210938 38.363282 38.367188v63.941406c0 4.710938-3.816406 8.523438-8.527344 8.523438zm0 0"/><path d="m299.941406 165.050781c-2.472656 0-4.910156-1.066406-6.585937-3.105469l-27.929688-33.875c-2.792969-3.390624-2.550781-8.347656.554688-11.449218l114.164062-114.109375c1.707031-1.695313 3.996094-2.671875 6.433594-2.4843752 2.40625.1171872 4.648437 1.2382812 6.171875 3.0976562l47.574219 57.71875c1.53125 1.851562 2.203125 4.265625 1.851562 6.644531-.339843 2.382813-1.671875 4.503907-3.664062 5.84375l-133.808594 90.261719c-1.457031.980469-3.121094 1.457031-4.761719 1.457031zm-16.425781-41.84375 18.074219 21.921875 119.605468-80.6875-35.632812-43.234375zm0 0"/><path d="m234.128906 188.414062c-2.542968 0-5.054687-1.128906-6.738281-3.285156-2.898437-3.722656-2.222656-9.082031 1.488281-11.96875l62.691406-48.765625c3.734376-2.898437 9.078126-2.203125 11.96875 1.492188 2.894532 3.71875 2.222657 9.074219-1.492187 11.964843l-62.695313 48.761719c-1.554687 1.214844-3.402343 1.800781-5.222656 1.800781zm0 0"/><path d="m140.21875 165.050781c-1.644531 0-3.308594-.476562-4.761719-1.457031l-133.816406-90.261719c-1.988281-1.339843-3.320313-3.460937-3.660156-5.84375-.347657-2.378906.324219-4.792969 1.855469-6.644531l47.574218-57.71875c1.523438-1.855469 3.761719-2.980469 6.167969-3.0976562 2.445313-.2031248 4.730469.7890622 6.4375 2.4921872l114.167969 114.101563c3.101562 3.105468 3.339844 8.058594.542968 11.449218l-27.921874 33.878907c-1.671876 2.035156-4.113282 3.101562-6.585938 3.101562zm-121.257812-100.609375 119.609374 80.6875 18.074219-21.921875-102.050781-102zm0 0"/><path d="m200.414062 184.035156c-1.824218 0-3.675781-.582031-5.230468-1.800781l-57.074219-44.382813c-3.710937-2.890624-4.382813-8.246093-1.488281-11.964843 2.898437-3.695313 8.242187-4.390625 11.964844-1.492188l57.070312 44.386719c3.714844 2.886719 4.390625 8.242188 1.492188 11.964844-1.679688 2.15625-4.195313 3.289062-6.734376 3.289062zm0 0"/><path d="m386.171875 381.589844c-2.257813 0-4.417969-.890625-6.027344-2.496094l-114.160156-114.105469c-3.109375-3.109375-3.347656-8.0625-.550781-11.453125l27.921875-33.875c2.78125-3.398437 7.683593-4.121094 11.347656-1.648437l133.816406 90.261719c1.988281 1.339843 3.320313 3.460937 3.664063 5.84375.34375 2.378906-.328125 4.796874-1.859375 6.644531l-47.574219 57.722656c-1.523438 1.855469-3.761719 2.980469-6.167969 3.097656-.136719.007813-.277343.007813-.410156.007813zm-102.65625-123.1875 102.046875 101.996094 35.636719-43.238282-119.609375-80.683594zm0 0"/><path d="m296.800781 259.003906c-1.820312 0-3.671875-.578125-5.230469-1.792968l-57.359374-44.617188c-3.71875-2.894531-4.390626-8.246094-1.492188-11.96875 2.886719-3.691406 8.25-4.394531 11.964844-1.488281l57.363281 44.617187c3.714844 2.890625 4.386719 8.242188 1.492187 11.964844-1.683593 2.15625-4.195312 3.285156-6.738281 3.285156zm0 0"/><path d="m53.988281 381.589844c-.132812 0-.273437 0-.410156-.007813-2.40625-.117187-4.644531-1.242187-6.167969-3.097656l-47.574218-57.722656c-1.53125-1.847657-2.203126-4.265625-1.855469-6.644531.339843-2.382813 1.671875-4.503907 3.660156-5.84375l133.816406-90.261719c3.652344-2.464844 8.566407-1.742188 11.347657 1.648437l27.921874 33.875c2.796876 3.390625 2.558594 8.34375-.542968 11.453125l-114.167969 114.105469c-1.609375 1.605469-3.769531 2.496094-6.027344 2.496094zm-35.027343-64.429688 35.636718 43.238282 102.050782-101.996094-18.074219-21.925782zm0 0"/><path d="m143.355469 259.003906c-2.535157 0-5.050781-1.128906-6.734375-3.285156-2.894532-3.722656-2.222656-9.074219 1.488281-11.964844l53.839844-41.871094c3.726562-2.90625 9.082031-2.203124 11.960937 1.488282 2.898438 3.722656 2.226563 9.078125-1.488281 11.96875l-53.835937 41.871094c-1.558594 1.214843-3.40625 1.792968-5.230469 1.792968zm0 0"/><path d="m215.820312 224.90625c-16.457031 0-29.84375-13.386719-29.84375-29.84375 0-16.449219 13.386719-29.835938 29.84375-29.835938 16.449219 0 29.835938 13.386719 29.835938 29.835938 0 16.457031-13.386719 29.84375-29.835938 29.84375zm0-42.628906c-7.054687 0-12.792968 5.738281-12.792968 12.785156 0 7.054688 5.738281 12.792969 12.792968 12.792969 7.046876 0 12.785157-5.738281 12.785157-12.792969 0-7.046875-5.738281-12.785156-12.785157-12.785156zm0 0"/></svg>