<svg xmlns="http://www.w3.org/2000/svg" height="884pt" version="1.1" viewBox="1 -29 884.99927 884" width="884pt">
<g id="surface1">
<path d="M 883.527344 169.347656 C 883.527344 169.226562 883.527344 169.066406 883.613281 168.945312 C 884.527344 167.007812 885 164.890625 885 162.75 L 885 103.753906 C 885 95.601562 878.398438 89 870.253906 89 L 840.753906 89 L 840.753906 15.253906 C 840.753906 7.101562 834.148438 0.5 826 0.5 L 59 0.5 C 50.851562 0.5 44.246094 7.101562 44.246094 15.253906 L 44.246094 89 L 14.753906 89 C 6.601562 89 0 95.601562 0 103.753906 L 0 162.75 C 0.0273438 164.898438 0.53125 167.007812 1.472656 168.933594 C 1.472656 169.066406 1.472656 169.226562 1.566406 169.347656 L 44.246094 254.734375 L 44.246094 413.5 L 14.753906 413.5 L 14.753906 443 L 44.246094 443 L 44.246094 664.25 L 14.753906 664.25 L 14.753906 693.75 L 44.246094 693.75 L 44.246094 796.996094 L 0 796.996094 L 0 826.5 L 885 826.5 L 885 796.996094 L 840.753906 796.996094 L 840.753906 693.75 L 870.25 693.75 L 870.25 664.25 L 840.753906 664.25 L 840.753906 443 L 870.25 443 L 870.25 413.503906 L 840.753906 413.503906 L 840.753906 254.734375 Z M 38.617188 177.5 L 846.390625 177.5 L 816.890625 236.503906 L 68.117188 236.503906 Z M 162.246094 118.5 L 162.246094 148 L 103.246094 148 L 103.246094 118.5 Z M 722.753906 148 L 722.753906 118.5 L 781.753906 118.5 L 781.753906 148 Z M 693.253906 148 L 634.25 148 L 634.25 118.5 L 693.253906 118.5 Z M 604.75 148 L 545.75 148 L 545.75 118.5 L 604.75 118.5 Z M 516.25 148 L 457.253906 148 L 457.253906 118.5 L 516.25 118.5 Z M 427.753906 148 L 368.753906 148 L 368.753906 118.5 L 427.746094 118.5 L 427.746094 148 Z M 339.253906 148 L 280.253906 148 L 280.253906 118.5 L 339.253906 118.5 Z M 250.753906 148 L 191.75 148 L 191.75 118.5 L 250.753906 118.5 Z M 855.5 148 L 811.253906 148 L 811.253906 118.5 L 855.5 118.5 Z M 73.746094 30 L 132.746094 30 L 132.746094 59.5 L 162.246094 59.5 L 162.246094 30 L 250.753906 30 L 250.753906 59.5 L 280.253906 59.5 L 280.253906 30 L 368.753906 30 L 368.753906 59.5 L 398.253906 59.5 L 398.253906 30 L 486.753906 30 L 486.753906 59.5 L 516.25 59.5 L 516.25 30 L 604.75 30 L 604.75 59.5 L 634.25 59.5 L 634.25 30 L 722.753906 30 L 722.753906 59.5 L 752.253906 59.5 L 752.253906 30 L 811.253906 30 L 811.253906 89 L 73.746094 89 Z M 29.5 118.5 L 73.746094 118.5 L 73.746094 148 L 29.5 148 Z M 73.746094 443 L 281 443 C 280.558594 447.871094 280.253906 452.769531 280.253906 457.753906 L 280.253906 664.25 L 235.996094 664.25 L 235.996094 546.253906 C 235.996094 513.667969 209.582031 487.253906 176.996094 487.253906 C 144.414062 487.253906 118 513.667969 118 546.253906 L 118 664.25 L 73.746094 664.25 Z M 206.503906 664.25 L 147.5 664.25 L 147.5 546.253906 C 147.5 529.960938 160.710938 516.753906 176.996094 516.753906 C 193.289062 516.753906 206.496094 529.960938 206.496094 546.253906 L 206.496094 664.25 Z M 73.746094 693.75 L 280.253906 693.75 L 280.253906 796.996094 L 73.746094 796.996094 Z M 368.753906 797.003906 L 368.753906 457.753906 C 368.753906 417.019531 401.769531 384 442.5 384 C 483.230469 384 516.25 417.019531 516.25 457.753906 L 516.25 796.996094 L 368.753906 796.996094 Z M 545.75 797.003906 L 545.75 457.753906 C 545.75 400.726562 499.519531 354.503906 442.5 354.503906 C 385.480469 354.503906 339.253906 400.726562 339.253906 457.753906 L 339.253906 796.996094 L 309.753906 796.996094 L 309.753906 457.753906 C 309.753906 384.4375 369.183594 325 442.5 325 C 515.820312 325 575.253906 384.4375 575.253906 457.753906 L 575.253906 796.996094 L 545.75 796.996094 Z M 811.253906 797.003906 L 604.75 797.003906 L 604.75 693.75 L 811.253906 693.75 Z M 737.496094 664.25 L 678.503906 664.25 L 678.503906 546.253906 C 678.503906 529.960938 691.710938 516.753906 708.003906 516.753906 C 724.289062 516.753906 737.496094 529.960938 737.496094 546.253906 Z M 811.253906 664.25 L 767 664.25 L 767 546.253906 C 767 513.667969 740.585938 487.253906 708.003906 487.253906 C 675.414062 487.253906 649 513.667969 649 546.253906 L 649 664.25 L 604.75 664.25 L 604.75 457.753906 C 604.75 452.761719 604.4375 447.871094 604 443 L 811.253906 443 Z M 598.464844 413.503906 C 574.128906 327.367188 484.570312 277.269531 398.429688 301.609375 C 344.21875 316.921875 301.847656 359.296875 286.535156 413.503906 L 73.746094 413.503906 L 73.746094 266.003906 L 811.253906 266.003906 L 811.253906 413.503906 Z M 598.464844 413.503906 " style=" stroke:none;fill-rule:nonzero;fill:rgb(0%,0%,0%);fill-opacity:1;" />
<path d="M 236.003906 295.503906 L 132.746094 295.503906 C 124.601562 295.503906 118 302.109375 118 310.253906 L 118 369.253906 C 118 377.402344 124.601562 384.003906 132.746094 384.003906 L 236.003906 384.003906 C 244.144531 384.003906 250.753906 377.402344 250.753906 369.253906 L 250.753906 310.253906 C 250.753906 302.109375 244.144531 295.503906 236.003906 295.503906 Z M 221.253906 354.503906 L 147.5 354.503906 L 147.5 325.003906 L 221.253906 325.003906 Z M 221.253906 354.503906 " style=" stroke:none;fill-rule:nonzero;fill:rgb(0%,0%,0%);fill-opacity:1;" />
<path d="M 752.253906 295.503906 L 649 295.503906 C 640.855469 295.503906 634.25 302.109375 634.25 310.253906 L 634.25 369.253906 C 634.25 377.402344 640.855469 384.003906 649 384.003906 L 752.253906 384.003906 C 760.394531 384.003906 767.003906 377.402344 767.003906 369.253906 L 767.003906 310.253906 C 767 302.109375 760.394531 295.503906 752.253906 295.503906 Z M 737.496094 354.503906 L 663.75 354.503906 L 663.75 325.003906 L 737.496094 325.003906 Z M 737.496094 354.503906 " style=" stroke:none;fill-rule:nonzero;fill:rgb(0%,0%,0%);fill-opacity:1;" />
</g>
</svg>