<svg id="Layer_3" enable-background="new 0 0 64 64" height="512" viewBox="0 0 64 64" width="512" xmlns="http://www.w3.org/2000/svg"><path d="m58 23c0-.552-.447-1-1-1h-3.025c-.525-11.668-10.179-21-21.975-21-4.427 0-8.55 1.319-12.005 3.579l-2.288-2.288c-.353-.353-.912-.39-1.308-.093-6.609 4.965-10.399 12.547-10.399 20.802 0 13.321 10.072 24.329 23 25.822v4.178h-8c-.314 0-.611.148-.8.4l-2.7 3.6h-2.5c-.553 0-1 .448-1 1v4c0 .552.447 1 1 1h34c.553 0 1-.448 1-1v-4c0-.552-.447-1-1-1h-2.5l-2.7-3.6c-.189-.252-.486-.4-.8-.4h-8v-4.178c12.928-1.493 23-12.501 23-25.822zm-6 0c0 7.459-4.112 13.967-10.182 17.404l-1.868-1.868c-.613-.613-.95-1.428-.95-2.293v-.485c0-.866.337-1.68.949-2.292 1.322-1.323 2.051-3.081 2.051-4.981 0-1.871-.729-3.628-2.05-4.949-.99-.991-2.306-1.536-3.708-1.536h-1.242c-1.103 0-2-.897-2-2s.897-2 2-2c2.206 0 4-1.794 4-4v-3c0-1.654-1.346-3-3-3-.552 0-1-.449-1-1v-3.75c9.606 1.455 17 9.744 17 19.75zm-19-19.949v3.949c0 1.654 1.346 3 3 3 .552 0 1 .449 1 1v3c0 1.103-.897 2-2 2-2.206 0-4 1.794-4 4s1.794 4 4 4h1.242c.867 0 1.681.337 2.293.95.944.944 1.465 2.199 1.465 3.565 0 1.336-.521 2.592-1.466 3.536-.989.991-1.534 2.307-1.534 3.706v.485c0 1.399.545 2.716 1.535 3.707l1.4 1.4c-1.852.805-3.845 1.341-5.935 1.55v-5.399c0-1.878-.897-3.672-2.399-4.8-.748-.562-1.672-.797-2.596-.665-.926.132-1.744.617-2.305 1.365-.24.321-.592.528-.988.585s-.791-.044-1.174-.331c-1.521-1.142-3.644-.872-4.833.614l-2.082 2.602c-1.883-1.952-3.364-4.285-4.334-6.87h3.711c1.654 0 3-1.346 3-3 0-.551.448-1 1-1h4c1.654 0 3-1.346 3-3v-3c0-1.654-1.346-3-3-3-.552 0-1-.449-1-1v-2.171c0-.801-.312-1.555-.879-2.122l-3.992-3.992c3.482-2.937 7.97-4.715 12.871-4.715.338 0 .667.034 1 .051zm-1 39.949c-4.922 0-9.427-1.795-12.915-4.755l2.182-2.728c.511-.637 1.422-.752 2.133-.217.748.562 1.671.795 2.596.665.926-.132 1.744-.617 2.305-1.365.24-.321.592-.528.988-.585.395-.055.792.044 1.111.285 1.001.752 1.6 1.948 1.6 3.2zm-20-20c0-5.409 2.167-10.315 5.667-13.919l4.04 4.04c.189.189.293.441.293.708v2.171c0 1.654 1.346 3 3 3 .552 0 1 .449 1 1v3c0 .551-.448 1-1 1h-4c-1.654 0-3 1.346-3 3 0 .551-.448 1-1 1h-4.342c-.414-1.601-.658-3.271-.658-5zm-4 0c0-7.331 3.239-14.087 8.917-18.67l1.435 1.435c-5.083 4.033-8.352 10.257-8.352 17.235 0 12.131 9.869 22 22 22 11.796 0 21.45-9.332 21.975-21h2.005c-.527 12.771-11.082 23-23.98 23-13.233 0-24-10.766-24-24zm40 38h-32v-2h32zm-4-4h-24l1.5-2h21zm-11-4h-2v-4.025c.332.012.665.025 1 .025s.668-.013 1-.025z"/></svg>