<svg height="512pt" viewBox="-49 0 512 512" width="512pt" xmlns="http://www.w3.org/2000/svg"><path d="m227.238281 383.324219v-240.195313c0-11.027344-8.972656-20-20-20-11.027343 0-20 8.972656-20 20v240.195313c0 11.027343 8.972657 20 20 20 11.027344 0 20-8.972657 20-20zm-25 0v-240.195313c0-2.757812 2.242188-5 5-5 2.757813 0 5 2.242188 5 5v240.195313c0 2.757812-2.242187 5-5 5-2.757812 0-5-2.242188-5-5zm0 0"/><path d="m279.886719 378.097656v-220.203125c0-11.027343-8.972657-20-20-20-11.027344 0-20 8.972657-20 20v220.203125c0 11.027344 8.972656 20 20 20 11.027343 0 20-8.96875 20-20zm-25 0v-220.203125c0-2.753906 2.242187-5 5-5 2.757812 0 5 2.246094 5 5v220.203125c0 2.757813-2.242188 5-5 5-2.757813 0-5-2.242187-5-5zm0 0"/><path d="m174.640625 378.097656v-220.195312c0-11.03125-8.972656-20-20-20-11.03125 0-20 8.96875-20 20v220.195312c0 11.027344 8.96875 20 20 20 11.027344 0 20-8.96875 20-20zm-25 0v-220.195312c0-2.757813 2.242187-5 5-5 2.753906 0 5 2.242187 5 5v220.195312c0 2.757813-2.246094 5-5 5-2.757813 0-5-2.242187-5-5zm0 0"/><path d="m385.1875 454.023438h-15.433594c.75-2.597657 1.144532-5.308594 1.144532-8.085938 0-15.984375-13.007813-28.988281-28.992188-28.988281h-19v-262.78125c3.65625.855469 7.464844 1.324219 11.382812 1.324219 10.992188 0 21.65625-2.214844 31.699219-6.582032 3.796875-1.652344 5.535157-6.070312 3.886719-9.867187-1.652344-3.800781-6.074219-5.542969-9.871094-3.886719-8.140625 3.539062-16.792968 5.335938-25.714844 5.335938-18.964843 0-34.390624-15.171876-34.390624-33.820313 0-18.644531 15.425781-33.8125 34.390624-33.8125h4.558594c4.929688 0 8.9375 4.011719 8.9375 8.9375v1.714844c0 4.929687-4.007812 8.9375-8.9375 8.9375-4.140625 0-7.5 3.355469-7.5 7.5s3.359375 7.5 7.5 7.5c13.199219 0 23.9375-10.738281 23.9375-23.9375v-1.714844c0-13.199219-10.738281-23.9375-23.9375-23.9375h-263.21875c-13.199218 0-23.9375 10.738281-23.9375 23.9375v1.714844c0 13.199219 10.738282 23.9375 23.9375 23.9375 4.140625 0 7.5-3.355469 7.5-7.5s-3.359375-7.5-7.5-7.5c-4.929687 0-8.9375-4.007813-8.9375-8.9375v-1.714844c0-4.925781 4.007813-8.9375 8.9375-8.9375h4.558594c18.964844 0 34.390625 15.167969 34.390625 33.8125 0 18.648437-15.425781 33.820313-34.390625 33.820313-35.140625 0-63.726562-28.148438-63.726562-62.742188-.003907-34.601562 28.585937-62.75 63.726562-62.75h40.40625l2.34375 6.171875-5.03125 11.199219c-1.695312 3.78125-.007812 8.21875 3.769531 9.917968 1 .445313 2.042969.660157 3.070313.660157 2.859375 0 5.597656-1.648438 6.84375-4.429688l3.222656-7.167969 4.636719 2.082032c1 .449218 2.042969.660156 3.070312.660156 2.863281 0 5.597657-1.648438 6.847657-4.429688 1.695312-3.777343.007812-8.21875-3.769532-9.914062l-8.625-3.875-.332031-.875h96.644531l10.113282 13.1875c2.617187 3.414062 6.609374 5.355469 10.886718 5.285156 4.300782-.054687 8.214844-2.082031 10.742188-5.558594l9.398437-12.914062h59.859375c35.144532 0 63.730469 28.148438 63.730469 62.75 0 14.488281-5.132813 28.621094-14.460937 39.796875-2.652344 3.179687-2.226563 7.910156.953124 10.5625 3.179688 2.652344 7.910157 2.226563 10.5625-.953125 11.574219-13.867188 17.945313-31.414062 17.945313-49.40625.003906-42.871094-35.316406-77.75-78.726563-77.75h-60.625c-4.304687 0-8.386718 2.078125-10.917968 5.558594l-8.667969 11.910156-9.335937-12.179688c-2.535157-3.3125-6.542969-5.289062-10.714844-5.289062h-153.839844c-43.410156 0-78.730469 34.878906-78.730469 77.75 0 42.867188 35.320313 77.738281 78.730469 77.738281 3.917969 0 7.722656-.464843 11.378906-1.320312v57.167969c0 4.140624 3.359375 7.5 7.5 7.5 4.144532 0 7.5-3.359376 7.5-7.5v-63.425782c12.683594-7.953125 21.460938-21.453125 22.816406-37.023437h155.710938c1.355469 15.570312 10.132812 29.070312 22.816406 37.023437v269.039063h-201.34375v-55.496094l7.523438-4.855469c3.492187-2.257812 5.628906-6.085937 5.714844-10.242187.085937-4.152344-1.886719-8.066407-5.28125-10.464844-2.246094-1.589844-4.980469-3.523437-7.953126-5.632813v-86.261718c0-4.144532-3.359374-7.5-7.5-7.5-4.144531 0-7.5 3.355468-7.5 7.5v87.550781c0 4.042969 1.96875 7.855469 5.265626 10.195313 2.136718 1.519531 4.167968 2.957031 6.007812 4.261718l-5.558594 3.589844c-3.578125 2.3125-5.714844 6.234375-5.714844 10.5v56.855469h-19c-15.984374 0-28.992187 13.003906-28.992187 28.988281 0 2.761719.402344 5.476562 1.15625 8.082031h-15.445313c-16.148437 0-29.289062 13.007813-29.289062 28.992188 0 15.980469 13.140625 28.988281 29.289062 28.988281h261.285157c4.144531 0 7.5-3.355469 7.5-7.5s-3.355469-7.5-7.5-7.5h-261.285157c-7.878906 0-14.289062-6.273438-14.289062-13.988281 0-7.714844 6.410156-13.988281 14.289062-13.988281h355.898438c7.878906 0 14.289062 6.273437 14.289062 13.988281 0 7.714843-6.410156 13.988281-14.289062 13.988281h-61.953125c-4.140625 0-7.5 3.355469-7.5 7.5s3.359375 7.5 7.5 7.5h61.953125c16.148438 0 29.289062-13.003906 29.289062-28.988281s-13.140624-28.988281-29.289062-28.988281zm-99.058594-358.136719h-157.78125c-2.019531-8.8125-6.441406-16.730469-12.570312-23.027344h182.921875c-6.128907 6.296875-10.554688 14.214844-12.570313 23.027344zm-225.164062 357.867187c-1.5625-2.308594-2.386719-5.011718-2.386719-7.816406 0-7.710938 6.277344-13.988281 13.988281-13.988281h269.339844c7.714844 0 13.992188 6.277343 13.992188 13.988281 0 2.941406-.914063 5.738281-2.585938 8.085938h-292.1875c-.054688-.089844-.101562-.179688-.160156-.269532zm0 0"/></svg>