<?xml version="1.0"?>
<svg xmlns="http://www.w3.org/2000/svg" viewBox="0 0 64 64" width="512" height="512"><g id="Global"><path d="M62,29V17a3,3,0,0,0-3-3H57.889a7,7,0,1,0-9.778,0H47a2.992,2.992,0,0,0-2.407,1.226A20.984,20.984,0,0,0,32,11a20.586,20.586,0,0,0-2.631.18A2.988,2.988,0,0,0,27,10H26V9a3,3,0,0,0-3-3H13a1,1,0,0,1-1-1A3,3,0,0,0,9,2H5A3,3,0,0,0,2,5V27a3,3,0,0,0,3,3h6.11c-.066.668-.11,1.337-.11,2,0,.683.043,1.35.106,2.005-.036,0-.07-.005-.106-.005A6.993,6.993,0,0,0,6.111,46H5a3,3,0,0,0-3,3V61a1,1,0,0,0,1,1H19a1,1,0,0,0,1-1V49.24a20.989,20.989,0,0,0,22,1.218V61a1,1,0,0,0,1,1H61a1,1,0,0,0,1-1V43a1,1,0,0,0-.293-.707l-6-6A1,1,0,0,0,55,36H52.617A21.2,21.2,0,0,0,53,32c0-.663-.044-1.332-.11-2H61A1,1,0,0,0,62,29ZM48,9a5,5,0,1,1,5,5A5.006,5.006,0,0,1,48,9ZM32,51c-1.81,0-3.729-2.344-5.1-6.289a18.724,18.724,0,0,1,10.2,0C35.731,48.653,33.811,51,32,51Zm-4.315-.489a18.735,18.735,0,0,1-6.664-3,18.972,18.972,0,0,1,3.985-2.158A17.572,17.572,0,0,0,27.685,50.511ZM32,42a20.911,20.911,0,0,0-5.69.8A41.424,41.424,0,0,1,25.021,33H38.979a41.408,41.408,0,0,1-1.287,9.793A20.979,20.979,0,0,0,32,42ZM25.03,31c.007-.335.016-.668.03-1H27a3,3,0,0,0,3-3V22.894c.674.063,1.344.106,2,.106a20.934,20.934,0,0,0,5.92-.869A42.453,42.453,0,0,1,38.979,31ZM32,21a19.781,19.781,0,0,1-2-.116V13.9a3.11,3.11,0,0,1,2-.9c1.945,0,4.015,2.708,5.4,7.2A18.954,18.954,0,0,1,32,21Zm4.341-7.477A19.011,19.011,0,0,1,43.621,17a18.933,18.933,0,0,1-4.346,2.528A18.745,18.745,0,0,0,36.341,13.523ZM4,27V5A1,1,0,0,1,5,4H9a1,1,0,0,1,1,1,3,3,0,0,0,3,3H23a1,1,0,0,1,1,1v1H9a3,3,0,0,0-3,3V27a2.966,2.966,0,0,0,.184,1H5A1,1,0,0,1,4,27Zm4,0V13a1,1,0,0,1,1-1H27a1,1,0,0,1,1,1V27a1,1,0,0,1-1,1H9A1,1,0,0,1,8,27Zm15.06,3c-.013.333-.023.665-.03,1H13.039c.018-.334.046-.666.082-1ZM13.039,33h9.982a43.163,43.163,0,0,0,1.4,10.439,20.981,20.981,0,0,0-5.012,2.786,19.336,19.336,0,0,1-2.1-2.2,6.974,6.974,0,0,0-4.143-9.679C13.1,33.905,13.062,33.456,13.039,33ZM16.13,45.747c.074.086.154.168.23.253h-.471C15.973,45.919,16.05,45.832,16.13,45.747ZM6,41a5,5,0,1,1,5,5A5.006,5.006,0,0,1,6,41ZM18,60H4V49a1,1,0,0,1,1-1H17a1,1,0,0,1,1,1Zm18.326-9.5A17.627,17.627,0,0,0,39,45.342a18.959,18.959,0,0,1,3,1.519V48.14A18.832,18.832,0,0,1,36.326,50.5ZM44,60V38H54v5a1,1,0,0,0,1,1h5V60ZM56,39.414,58.586,42H56ZM43,36a1,1,0,0,0-1,1v7.543a20.869,20.869,0,0,0-2.414-1.123A43.189,43.189,0,0,0,40.979,33h9.99a19.155,19.155,0,0,1-.4,3Zm7.961-5H40.979a44.2,44.2,0,0,0-1.164-9.531A20.989,20.989,0,0,0,44,19.217V29a1,1,0,0,0,1,1h5.879C50.915,30.334,50.943,30.666,50.961,31ZM60,28H46V17a1,1,0,0,1,1-1H59a1,1,0,0,1,1,1Z"/><rect x="48" y="48" width="8" height="2"/><rect x="48" y="54" width="8" height="2"/></g></svg>
