<?xml version="1.0" encoding="iso-8859-1"?>
<!-- Generator: Adobe Illustrator 19.0.0, SVG Export Plug-In . SVG Version: 6.00 Build 0)  -->
<svg version="1.1" id="Capa_1" xmlns="http://www.w3.org/2000/svg" xmlns:xlink="http://www.w3.org/1999/xlink" x="0px" y="0px"
	 viewBox="0 0 512 512" style="enable-background:new 0 0 512 512;" xml:space="preserve">
<g>
	<g>
		<path d="M512,44.207h-74.927v23.397l13.072,23.857l-4.812,141.562h-31.717v-22.796c9.475-7.293,14.465-18.22,14.465-31.891
			c0-30.486-47.571-66.464-52.995-70.466l-4.447-3.281l-4.448,3.279c-0.203,0.15-2.933,2.172-7.043,5.543V93.922H152.35v20.313
			c-4.662-3.866-7.815-6.201-8.041-6.367l-4.448-3.28l-4.448,3.281c-5.425,4.002-52.995,39.981-52.995,70.466
			c0,13.534,5.172,24.471,14.985,31.91v22.777H67.165L62.353,91.461l13.073-23.857V44.207H0.5v23.397l13.072,23.857L4.855,347.91H0
			v14.985h511.5V347.91h-3.856l-8.718-256.45L512,67.604V44.207z M19.85,347.91l8.522-250.755h19.182l8.522,250.755H19.85z
			 M60.441,63.768L50.358,82.17h-24.79L15.485,63.768v-4.576h44.956V63.768z M119.383,347.91h-14.985v-31.469
			c0-4.132,3.361-7.493,7.493-7.493s7.493,3.361,7.493,7.493V347.91z M152.351,347.91h-17.982v-31.469
			c0-12.394-10.084-22.478-22.478-22.478c-12.394,0-22.478,10.084-22.478,22.478v31.469H71.071l-3.396-99.902h84.676V347.91z
			 M152.351,233.022H112.39v-19.221h39.961V233.022z M152.351,198.816h-45.225c-6.538-4.633-9.721-11.354-9.721-20.48
			c0-15.934,24.402-40.692,42.426-54.973c3.118,2.501,7.607,6.241,12.521,10.772V198.816z M273.233,347.91h-34.966v-54.447
			c0-14.765,6.452-28.618,17.483-38.005c11.031,9.387,17.483,23.24,17.483,38.005V347.91z M303.204,347.91h-14.985v-54.447
			c0-21.521-10.561-41.561-28.25-53.606l-4.218-2.871l-4.218,2.871c-17.69,12.045-28.25,32.085-28.25,53.606v54.447h-14.985v-84.418
			c0-31.857,18.527-60.199,47.454-73.028c28.927,12.828,47.454,41.171,47.454,73.028V347.91z M344.164,347.91h-25.975v-84.418
			c0-39.031-23.416-73.617-59.657-88.114l-2.782-1.113l-2.782,1.113c-36.24,14.497-59.657,49.083-59.657,88.114v84.418h-25.975
			V108.908h176.827V347.91z M359.149,133.215c4.512-4.108,8.616-7.521,11.526-9.854c18.023,14.265,42.422,39.009,42.422,54.975
			c0,9.429-2.936,15.991-9.211,20.48h-44.736V133.215z M359.149,213.801h39.482v19.221h-39.482V213.801z M409.1,347.91h-14.985
			v-31.469c0-4.132,3.361-7.493,7.493-7.493s7.493,3.361,7.493,7.493V347.91z M441.429,347.91h-17.343v-31.469
			c0-12.394-10.084-22.478-22.478-22.478c-12.394,0-22.478,10.084-22.478,22.478v31.469h-19.98v-99.902h85.675L441.429,347.91z
			 M456.423,347.91l8.522-250.755h19.182l8.522,250.755H456.423z M497.015,63.768L486.932,82.17h-24.791l-10.082-18.402v-4.576
			h44.956V63.768z"/>
	</g>
</g>
<g>
	<g>
		<rect x="375.633" y="382.876" width="79.922" height="14.985"/>
	</g>
</g>
<g>
	<g>
		<rect x="315.692" y="382.876" width="14.985" height="14.985"/>
	</g>
</g>
<g>
	<g>
		<rect x="55.945" y="382.876" width="84.917" height="14.985"/>
	</g>
</g>
<g>
	<g>
		<rect x="215.789" y="382.876" width="84.917" height="14.985"/>
	</g>
</g>
<g>
	<g>
		<rect x="345.662" y="382.876" width="14.985" height="14.985"/>
	</g>
</g>
<g>
	<g>
		<rect x="155.848" y="382.876" width="14.985" height="14.985"/>
	</g>
</g>
<g>
	<g>
		<rect x="185.819" y="382.876" width="14.985" height="14.985"/>
	</g>
</g>
<g>
	<g>
		<rect x="361.647" y="417.842" width="14.985" height="14.985"/>
	</g>
</g>
<g>
	<g>
		<rect x="203.801" y="417.842" width="14.985" height="14.985"/>
	</g>
</g>
<g>
	<g>
		<rect x="105.897" y="417.842" width="82.919" height="14.985"/>
	</g>
</g>
<g>
	<g>
		<rect x="263.742" y="417.842" width="82.919" height="14.985"/>
	</g>
</g>
<g>
	<g>
		<rect x="233.772" y="417.842" width="14.985" height="14.985"/>
	</g>
</g>
<g>
	<g>
		<rect x="391.618" y="417.842" width="13.986" height="14.985"/>
	</g>
</g>
<g>
	<g>
		<rect x="155.848" y="452.808" width="199.805" height="14.985"/>
	</g>
</g>
<g>
	<g>
		<rect x="264.741" y="131.122" width="14.985" height="14.985"/>
	</g>
</g>
<g>
	<g>
		<rect x="232.773" y="131.122" width="14.985" height="14.985"/>
	</g>
</g>
<g>
	<g>
		<rect x="296.71" y="131.122" width="13.986" height="14.985"/>
	</g>
</g>
<g>
	<g>
		<rect x="200.804" y="131.122" width="14.985" height="14.985"/>
	</g>
</g>
<g>
	<g>
		<rect x="85.916" y="262.993" width="51.949" height="14.985"/>
	</g>
</g>
<g>
	<g>
		<rect x="374.634" y="262.993" width="53.947" height="14.985"/>
	</g>
</g>
<g>
	<g>
		<path d="M132.815,149.64c-11.834,11.641-16.733,19.622-18.599,23.342l13.395,6.718c1.167-2.328,5.035-8.875,15.714-19.378
			L132.815,149.64z"/>
	</g>
</g>
<g>
	<g>
		<path d="M378.185,150.13l-10.549,10.645c10.337,10.245,14.11,16.649,15.253,18.927l13.395-6.72
			C394.453,169.333,389.667,161.512,378.185,150.13z"/>
	</g>
</g>
<g>
	<g>
		<rect x="248.258" y="210.045" width="14.985" height="14.985"/>
	</g>
</g>
<g>
</g>
<g>
</g>
<g>
</g>
<g>
</g>
<g>
</g>
<g>
</g>
<g>
</g>
<g>
</g>
<g>
</g>
<g>
</g>
<g>
</g>
<g>
</g>
<g>
</g>
<g>
</g>
<g>
</g>
</svg>
