<?xml version="1.0" encoding="iso-8859-1"?>
<!-- Generator: Adobe Illustrator 19.0.0, SVG Export Plug-In . SVG Version: 6.00 Build 0)  -->
<svg version="1.1" id="Layer_1" xmlns="http://www.w3.org/2000/svg" xmlns:xlink="http://www.w3.org/1999/xlink" x="0px" y="0px"
	 viewBox="0 0 512 512" style="enable-background:new 0 0 512 512;" xml:space="preserve">
<g>
	<g>
		<g>
			<path d="M256,196.308c-32.93,0-59.733,26.795-59.733,59.733S223.07,315.775,256,315.775c32.93,0,59.733-26.795,59.733-59.733
				S288.93,196.308,256,196.308z M256,298.708c-23.526,0-42.667-19.14-42.667-42.667c0-23.526,19.14-42.667,42.667-42.667
				c23.526,0,42.667,19.14,42.667,42.667C298.667,279.568,279.526,298.708,256,298.708z"/>
			<path d="M441.679,208.786c32.378,12.676,53.255,28.828,53.255,47.256c0,15.215-16.265,27.921-29.909,35.908
				c-4.062,2.372-5.436,7.603-3.055,11.674c2.381,4.062,7.586,5.427,11.674,3.055C505.344,288.135,512,268.91,512,256.041
				c0-25.058-23.688-45.812-60.607-61.38c52.644-78.53,78.036-150.177,47.096-181.112c-38.906-38.892-142.133,11.249-242.501,92.649
				C175.585,40.607,98.99,0.038,50.774,0.044c-16,0.026-28.595,4.54-37.436,13.44C2.134,24.757-7.705,48.385,9.012,96.889
				c1.528,4.463,6.374,6.818,10.846,5.291c4.454-1.536,6.818-6.391,5.282-10.846c-10.803-31.369-10.701-54.75,0.299-65.818
				c5.53-5.564,14.063-8.388,25.361-8.405h0.111c43.218,0,115.626,38.843,191.583,100.232
				c-18.085,15.212-35.977,31.358-53.28,48.104c-41.34,4.071-80.469,11.868-112.301,22.963
				c-11.016-16.211-20.81-32.084-29.176-47.378c-2.27-4.13-7.441-5.649-11.58-3.388c-4.139,2.261-5.658,7.45-3.388,11.58
				c8.047,14.711,17.364,29.931,27.789,45.459C23.666,210.248,0,230.995,0,256.041c0,25.058,23.688,45.812,60.609,61.38
				C7.964,395.951-17.43,467.599,13.505,498.533c9.216,9.208,22.007,13.423,37.53,13.423c50.101,0,128.467-43.986,205.134-106.191
				c76.603,62.183,154.928,106.177,204.956,106.177c15.462,0,28.237-4.207,37.402-13.372
				c38.848-38.862-11.376-142.107-92.785-242.388C418.573,240.366,430.625,224.482,441.679,208.786z M394.911,243.072
				c-16.614-19.752-34.345-39.27-52.753-58.039c30.448,4.085,59.206,10.216,83.386,18.023
				C416.242,216.03,406.026,229.4,394.911,243.072z M315.03,330.381c-19.09,1.627-38.863,2.46-59.03,2.46
				c-19.496,0-39.377-0.94-58.93-2.726c-2.33-2.289-4.662-4.597-6.998-6.932c-22.164-22.155-42.964-44.839-61.963-67.475
				c18.23-21.599,38.624-43.849,61.165-66.39c2.466-2.466,4.928-4.898,7.387-7.313c19.685-1.81,39.706-2.765,59.339-2.765
				c19.502,0,39.388,0.94,58.945,2.727c2.744,2.686,5.482,5.39,8.213,8.121c22.435,22.441,42.737,44.591,60.891,66.095
				c-18.269,21.658-38.716,43.971-61.322,66.579C320.157,325.334,317.592,327.867,315.03,330.381z M295.786,348.827
				c-13.39,12.531-26.62,24.277-39.615,35.24c-13.011-10.983-26.258-22.749-39.666-35.305c13.11,0.756,26.325,1.146,39.494,1.146
				C269.453,349.908,282.74,349.542,295.786,348.827z M169.903,327.058c-30.471-4.085-59.252-10.219-83.448-18.032
				c9.291-12.957,19.492-26.31,30.591-39.964C133.473,288.51,151.184,307.958,169.903,327.058z M460.242,16.929
				c11.477,0,20.378,2.876,26.18,8.687c21.218,21.213,3.282,83.544-50.772,162.987c-32.029-11.232-71.522-19.108-113.245-23.193
				c-17.729-17.177-35.598-33.353-53.348-48.358C350.129,51.153,420.611,16.929,460.242,16.929z M255.644,128.162
				c13.237,11.094,26.535,22.843,39.763,35.153c-13.081-0.753-26.267-1.141-39.407-1.141c-13.3,0-26.648,0.397-39.886,1.168
				C229.474,150.836,242.676,139.108,255.644,128.162z M169.47,185.084c-18.209,18.602-35.752,37.929-52.199,57.484
				c-10.781-13.325-20.898-26.592-30.267-39.686C110.973,195.19,139.389,189.139,169.47,185.084z M17.067,256.041
				c0-18.421,20.862-34.569,53.22-47.242c10.975,15.546,22.993,31.336,35.908,47.182c-12.807,15.789-24.837,31.647-35.872,47.317
				C37.944,290.622,17.067,274.469,17.067,256.041z M25.571,486.467c-21.212-21.212-3.275-83.546,50.778-162.987
				c32.038,11.235,71.543,19.113,113.278,23.196c17.348,16.799,35.29,33,53.429,48.255
				C138.448,479.987,51.45,512.346,25.571,486.467z M486.461,486.504c-25.812,25.784-112.705-6.582-217.176-91.568
				c18.096-15.212,35.997-31.365,53.312-48.115c30.09-2.849,58.484-7.633,84.043-14.252c4.557-1.178,7.305-5.837,6.118-10.402
				c-1.178-4.557-5.845-7.279-10.402-6.118c-18.665,4.834-38.923,8.664-60.302,11.44c18.449-18.822,36.217-38.392,52.862-58.194
				C479.918,373.774,512.266,460.684,486.461,486.504z"/>
		</g>
	</g>
</g>
<g>
</g>
<g>
</g>
<g>
</g>
<g>
</g>
<g>
</g>
<g>
</g>
<g>
</g>
<g>
</g>
<g>
</g>
<g>
</g>
<g>
</g>
<g>
</g>
<g>
</g>
<g>
</g>
<g>
</g>
</svg>
