<?xml version="1.0" encoding="iso-8859-1"?>
<!-- Generator: Adobe Illustrator 19.0.0, SVG Export Plug-In . SVG Version: 6.00 Build 0)  -->
<svg version="1.1" id="Capa_1" xmlns="http://www.w3.org/2000/svg" xmlns:xlink="http://www.w3.org/1999/xlink" x="0px" y="0px"
	 viewBox="0 0 512 512" style="enable-background:new 0 0 512 512;" xml:space="preserve">
<g>
	<g>
		<path d="M505.69,392.117c-8.898-6.475-16.312-14.517-22.017-23.977l-1.642-2.723V199.468c9.863-7.912,18.732-17.773,18.732-36.502
			c0-23.936-14.807-34.407-28.685-42.345c-9.266-5.298-15.022-14.769-15.022-24.715v-7.493h-6.244V72.429h12.488V57.444H450.81
			V44.956h-14.985v12.488h-12.488v14.985h12.488v15.984h-6.244v7.493c0,10.647-5.183,19.645-14.22,24.686
			c-14.672,8.184-30.256,19.026-29.457,44.235c0.529,16.686,9.183,26.4,18.702,34.497v61.096
			c-5.121-12.262-15.515-19.236-25.438-24.911c-9.407-5.379-15.022-14.565-15.022-24.571v-7.493h-6.244v-18.127h12.488v-14.985
			h-12.488v-12.488h-14.985v12.488h-12.488v14.985h12.488v18.127h-6.244v7.493c0,10.555-5.183,19.5-14.22,24.541
			c-14.672,8.184-30.256,19.026-29.457,44.235c0.528,16.686,9.183,26.4,18.702,34.497v77.905h-11.739v-49.452h-14.985v49.452H267.24
			v-56.782c9.863-7.912,18.732-17.773,18.732-36.502c0-23.936-14.807-34.407-28.685-42.345
			c-9.407-5.379-15.022-14.565-15.022-24.571v-7.493h-6.244v-19.299h12.488V190.14H236.02v-12.488h-14.985v12.488h-12.488v14.985
			h12.488v19.299h-6.244v7.493c0,10.555-5.183,19.5-14.22,24.541c-14.672,8.184-30.256,19.026-29.457,44.235
			c0.528,16.686,9.183,26.4,18.702,34.497v56.926h-77.175V267.414c11.734-9.288,21.742-20.037,22.438-40.755l0.224,0.114
			l36.878-72.423h28.632l7.508,14.026l13.212-7.072l-8.74-16.326v-37.475c5.859-4.94,11.239-11.554,11.239-23.309
			c0-15.206-8.997-22.448-18.721-28.009c-4.698-2.686-7.504-7.226-7.504-12.141v-7.407l-3.746-0.043v-9.12h12.488V12.488h-12.488V0
			h-14.985v12.488h-12.488v14.985h12.488v8.947l-3.746-0.043v7.58c0,5.269-2.549,9.714-6.995,12.194
			c-10.277,5.732-19.718,13.245-19.21,29.252c0.338,10.654,5.46,17.045,10.969,21.958v37.697l-29.35,57.64
			c-6.186-13.534-17.998-21.421-29.292-27.88c-11.761-6.725-18.782-18.234-18.782-30.786v-7.493h-7.493v-17.156h12.488v-14.985
			H75.176V91.91H60.191v12.488H47.703v14.985h12.488v17.156h-7.493v7.493c0,13.225-6.5,24.436-17.834,30.759
			c-17.22,9.607-35.513,22.318-34.581,51.725c0.625,19.727,11.075,31.159,22.443,40.748v124.852H0.25V512h511.5V392.117H505.69z
			 M197.807,139.364H175.08v-27.973h22.728V139.364z M175.635,69.238c4.751-2.651,8.513-6.456,11.038-10.992
			c2.588,4.421,6.402,8.204,11.199,10.947c8.668,4.956,11.174,8.321,11.174,14.999c0,5.596-1.702,8.412-6.338,12.213h-32.38
			c-4.625-4.091-6.082-6.925-6.226-11.477C163.879,77.873,166.465,74.353,175.635,69.238z M483.113,392.117h-67.627
			c4.624-4.939,8.747-10.35,12.298-16.236l21.528-35.692l21.528,35.692C474.387,381.762,478.493,387.182,483.113,392.117z
			 M441.819,290.716v32.881l-22.228,36.852V203.301h47.454v137.272l-10.24-16.976v-32.881H441.819z M443.389,106.219
			c2.916,11.274,10.516,21.272,21.249,27.411c14.02,8.017,21.138,14.757,21.138,29.335c0,2.588-0.213,4.881-0.624,6.979
			c-10.422-6.395-18.076-14.047-26.091-22.067c-7.639-7.645-15.492-15.487-25.928-22.378
			C438.157,120.12,441.679,113.515,443.389,106.219z M420.169,135.102c11.565,6.645,19.718,14.788,28.291,23.367
			c8.483,8.489,17.218,17.214,29.457,24.609c-1.693,1.722-3.659,3.433-5.942,5.237h-11.781
			c-8.459-5.826-15.116-12.456-22.111-19.458c-8.595-8.604-17.449-17.447-29.942-24.902
			C411.207,140.81,415.214,137.996,420.169,135.102z M400.881,164.352c-0.081-2.563,0.078-4.877,0.435-7.021
			c10.462,6.403,18.134,14.078,26.166,22.118c2.938,2.941,5.916,5.92,9.065,8.866h-21.744
			C405.833,180.732,401.206,174.588,400.881,164.352z M350.457,221.29c2.871,11.226,10.38,21,21.271,27.228
			c14.02,8.017,21.138,14.757,21.138,29.335c0,3.669-0.409,6.763-1.245,9.513l-49.347-49.347
			C346.189,233.158,348.987,227.476,350.457,221.29z M329.752,248.567c0.402-0.224,0.788-0.464,1.18-0.698l52.044,52.044
			c-1.193,1.078-2.486,2.166-3.909,3.291h-12.568l-47.62-47.62C321.897,253.199,325.512,250.932,329.752,248.567z M374.135,318.189
			v73.928h-47.454v-73.928H374.135z M307.972,279.239c-0.145-4.56,0.425-8.372,1.658-11.713l35.676,35.676H321.89
			C312.92,295.619,308.297,289.475,307.972,279.239z M270.986,298.833c0,11.936-4.278,17.824-13.8,25.35h-5.563
			c2.179-6.748,3.379-14.421,3.379-25.35c0-12.959-1.746-21.789-4.797-29.127C263.982,277.632,270.986,284.381,270.986,298.833z
			 M225.483,267.221c1.183-1.736,2.244-3.757,3.188-6.001c0.937,2.191,1.98,4.188,3.131,5.92c4.495,6.763,8.214,13.816,8.214,31.693
			c0,12.6-1.793,19.411-4.374,25.35h-14.091c-2.828-6.895-4.379-13.505-4.504-23.817
			C216.821,281.526,220.909,273.938,225.483,267.221z M252.254,339.169v52.948h-47.454v-52.948H252.254z M186.091,300.219
			c-0.477-15.026,6.629-22.071,20.774-30.098c-3.145,7.614-4.963,16.943-4.801,30.425c0.117,9.696,1.392,16.98,3.541,23.637h-5.595
			C191.039,316.599,186.416,310.455,186.091,300.219z M120.133,224.331c0,15.005-5.666,22.589-17.543,31.919h-62.84
			c13.294-10.468,24.564-13.483,36.362-16.638c13.43-3.59,27.247-7.29,43.701-20.894
			C120.022,220.485,120.133,222.346,120.133,224.331z M97.655,271.235v120.882H37.714V271.235H97.655z M15.353,221.046
			c1.128-15.79,10.535-24.086,26.814-33.169c13.788-7.691,22.781-20.95,24.988-36.352h1.107
			c2.052,13.201,9.496,25.037,20.931,33.207c-13.314,10.859-24.252,14.276-35.729,17.857
			C41.731,206.248,29.678,210.016,15.353,221.046z M17.889,238.453c15.316-13.842,27.349-17.602,40.037-21.56
			c13.453-4.197,27.332-8.535,44.579-23.818c4.909,3.348,8.802,6.757,11.667,10.692c-15.792,14.371-28.519,17.783-41.929,21.368
			c-14.356,3.838-29.154,7.795-47.144,23.85C21.93,245.603,19.528,242.214,17.889,238.453z M387.872,497.015H15.236v-89.912h372.636
			V497.015z M392.934,392.117h-3.813v-77.761c6.214-4.985,12.029-10.747,15.485-19.008v86.489
			C401.073,385.613,397.167,389.037,392.934,392.117z M465.796,497.015h-32.968V451.1c0-4.578,1.895-9.065,5.2-12.307
			c3.181-3.122,7.303-4.802,11.606-4.713c8.912,0.169,16.162,7.563,16.162,16.481V497.015z M480.781,497.015V450.56
			c0-17.026-13.846-31.141-30.864-31.463c-8.363-0.153-16.309,3.038-22.385,9c-6.158,6.042-9.69,14.426-9.69,23.004v45.914h-14.985
			v-89.912h93.908v89.912H480.781z"/>
	</g>
</g>
<g>
	<g>
		<rect x="357.901" y="451.559" width="14.985" height="29.971"/>
	</g>
</g>
<g>
	<g>
		<rect x="357.901" y="421.588" width="14.985" height="14.985"/>
	</g>
</g>
<g>
	<g>
		<rect x="321.497" y="451.559" width="14.985" height="29.971"/>
	</g>
</g>
<g>
	<g>
		<rect x="321.497" y="421.588" width="14.985" height="14.985"/>
	</g>
</g>
<g>
	<g>
		<rect x="285.082" y="451.559" width="14.985" height="29.971"/>
	</g>
</g>
<g>
	<g>
		<rect x="285.082" y="421.588" width="14.985" height="14.985"/>
	</g>
</g>
<g>
	<g>
		<rect x="248.678" y="421.588" width="14.985" height="14.985"/>
	</g>
</g>
<g>
	<g>
		<rect x="248.678" y="451.559" width="14.985" height="29.971"/>
	</g>
</g>
<g>
	<g>
		<rect x="212.263" y="451.559" width="14.985" height="29.971"/>
	</g>
</g>
<g>
	<g>
		<rect x="212.263" y="421.588" width="14.985" height="14.985"/>
	</g>
</g>
<g>
	<g>
		<rect x="175.859" y="451.559" width="14.985" height="29.971"/>
	</g>
</g>
<g>
	<g>
		<rect x="175.859" y="421.588" width="14.985" height="14.985"/>
	</g>
</g>
<g>
	<g>
		<rect x="139.444" y="451.559" width="14.985" height="29.971"/>
	</g>
</g>
<g>
	<g>
		<rect x="139.444" y="421.588" width="14.985" height="14.985"/>
	</g>
</g>
<g>
	<g>
		<rect x="103.04" y="421.588" width="14.985" height="14.985"/>
	</g>
</g>
<g>
	<g>
		<rect x="103.04" y="451.559" width="14.985" height="29.971"/>
	</g>
</g>
<g>
	<g>
		<rect x="66.626" y="451.559" width="14.985" height="29.971"/>
	</g>
</g>
<g>
	<g>
		<rect x="66.626" y="421.588" width="14.985" height="14.985"/>
	</g>
</g>
<g>
	<g>
		<rect x="30.221" y="421.588" width="14.985" height="14.985"/>
	</g>
</g>
<g>
	<g>
		<rect x="30.221" y="451.559" width="14.985" height="29.971"/>
	</g>
</g>
<g>
	<g>
		
			<rect x="171.995" y="179.431" transform="matrix(0.3228 -0.9465 0.9465 0.3228 -55.3671 296.4665)" width="14.986" height="14.986"/>
	</g>
</g>
<g>
	<g>
		
			<rect x="162.328" y="207.798" transform="matrix(0.3228 -0.9465 0.9465 0.3228 -88.7621 306.5268)" width="14.986" height="14.986"/>
	</g>
</g>
<g>
	<g>
		<polygon points="155.469,234.138 130.124,308.455 130.124,346.309 145.109,346.309 145.109,310.94 169.652,238.976 		"/>
	</g>
</g>
<g>
	<g>
		<rect x="130.124" y="361.297" width="14.985" height="14.339"/>
	</g>
</g>
<g>
	<g>
		<rect x="435.825" y="250.755" width="14.985" height="14.985"/>
	</g>
</g>
<g>
	<g>
		<rect x="435.825" y="220.784" width="14.985" height="14.985"/>
	</g>
</g>
<g>
</g>
<g>
</g>
<g>
</g>
<g>
</g>
<g>
</g>
<g>
</g>
<g>
</g>
<g>
</g>
<g>
</g>
<g>
</g>
<g>
</g>
<g>
</g>
<g>
</g>
<g>
</g>
<g>
</g>
</svg>
